<svg width="32" height="32" viewBox="0 0 32 32" fill="none" xmlns="http://www.w3.org/2000/svg">
<g id="icon cool-icon-35">
<path id="coolicon" d="M22.666 22.6663H18.666V19.9997H22.666C24.8752 19.9997 26.666 18.2088 26.666 15.9997C26.666 13.7905 24.8752 11.9997 22.666 11.9997H18.666V9.33301H22.666C26.3479 9.33301 29.3327 12.3178 29.3327 15.9997C29.3327 19.6816 26.3479 22.6663 22.666 22.6663ZM13.3327 22.6663H9.33268C5.65078 22.6663 2.66602 19.6816 2.66602 15.9997C2.66602 12.3178 5.65078 9.33301 9.33268 9.33301H13.3327V11.9997H9.33268C7.12354 11.9997 5.33268 13.7905 5.33268 15.9997C5.33268 18.2088 7.12354 19.9997 9.33268 19.9997H13.3327V22.6663ZM22.666 17.333H9.33268V14.6663H22.666V17.333Z" fill="white"/>
</g>
</svg>
