<svg width="32" height="32" viewBox="0 0 32 32" fill="none" xmlns="http://www.w3.org/2000/svg">
<g id="icon cool-icon-27">
<path id="coolicon" d="M15.9993 29.3337C8.63555 29.3337 2.66602 23.3641 2.66602 16.0003C2.66602 8.63653 8.63555 2.66699 15.9993 2.66699C23.3631 2.66699 29.3327 8.63653 29.3327 16.0003C29.3246 23.3608 23.3598 29.3256 15.9993 29.3337ZM14.666 22.667V25.3337H17.3327V22.667H14.666ZM15.9993 9.33366C17.4721 9.33366 18.666 10.5276 18.666 12.0003C18.6707 12.708 18.3866 13.3869 17.8793 13.8803L16.226 15.5603C15.2279 16.5626 14.6671 17.9192 14.666 19.3337V20.0003H17.3327C17.2291 18.567 17.8072 17.1687 18.8927 16.227L20.0927 15.0003C20.8901 14.2061 21.3366 13.1258 21.3327 12.0003C21.3327 9.05481 18.9449 6.66699 15.9993 6.66699C13.0538 6.66699 10.666 9.05481 10.666 12.0003H13.3327C13.3327 10.5276 14.5266 9.33366 15.9993 9.33366Z" fill="white"/>
</g>
</svg>
